<?xml version="1.0" encoding="UTF-8" standalone="no"?>
<!DOCTYPE svg PUBLIC "-//W3C//DTD SVG 20010904//EN"
              "http://www.w3.org/TR/2001/REC-SVG-20010904/DTD/svg10.dtd">

<svg xmlns="http://www.w3.org/2000/svg"
     width="143" height="143"
     viewBox="0 0 400 400">
  <path id="選択範囲"
        fill="none" stroke="black" stroke-width="1"
        d="M 0.00,0.00
           C 0.00,0.00 0.00,400.00 0.00,400.00
             0.00,400.00 400.00,400.00 400.00,400.00
             400.00,400.00 400.00,0.00 400.00,0.00
             400.00,0.00 0.00,0.00 0.00,0.00 Z
           M 209.00,113.00
           C 209.00,113.00 213.00,112.00 213.00,112.00
             213.00,112.00 208.69,123.00 208.69,123.00
             208.69,123.00 200.81,134.00 200.81,134.00
             200.81,134.00 193.00,148.00 193.00,148.00
             197.69,150.05 193.29,153.45 191.08,156.00
             184.03,164.16 182.31,167.88 173.00,175.18
             159.73,185.58 148.25,183.79 139.00,189.75
             127.30,197.29 114.41,210.36 105.44,221.00
             105.44,221.00 95.83,233.00 95.83,233.00
             92.11,237.17 79.36,251.60 75.00,253.05
             72.83,253.85 72.05,253.44 70.00,253.05
             68.03,257.65 63.28,264.40 60.42,269.00
             56.75,274.92 53.52,281.60 48.00,286.00
             51.44,276.62 63.34,258.97 69.14,250.00
             69.14,250.00 92.25,209.00 92.25,209.00
             94.82,203.86 104.16,186.72 104.15,182.01
             104.13,175.80 96.69,172.79 92.00,170.35
             92.00,170.35 81.00,164.26 81.00,164.26
             72.13,159.94 64.53,158.84 57.21,150.91
             53.12,146.48 48.23,136.08 52.02,130.31
             54.59,126.40 63.24,127.69 67.00,128.95
             70.01,129.96 76.49,132.82 78.99,134.63
             82.74,137.35 83.50,139.63 88.04,141.75
             94.57,144.82 96.65,143.33 103.00,144.00
             105.32,140.30 108.54,138.83 111.58,135.79
             120.68,126.71 124.32,124.56 130.92,113.00
             135.74,104.56 135.22,102.54 138.14,95.28
             138.14,95.28 141.83,86.28 141.83,86.28
             141.83,86.28 143.65,78.09 143.65,78.09
             143.65,78.09 150.54,55.00 150.54,55.00
             152.68,43.24 150.83,40.74 151.52,35.00
             151.52,35.00 154.00,25.00 154.00,25.00
             162.06,25.94 167.11,33.85 171.58,40.00
             176.68,47.03 185.16,59.02 188.19,67.00
             188.19,67.00 193.71,91.01 193.71,91.01
             197.68,100.34 203.94,105.03 209.00,113.00 Z
           M 251.00,333.00
           C 251.44,331.06 252.13,329.01 251.81,327.00
             250.80,320.57 243.75,314.25 238.00,312.00
             236.21,318.28 223.33,342.32 219.33,347.91
             219.33,347.91 212.54,355.93 212.54,355.93
             208.56,361.71 204.79,370.46 197.00,371.77
             193.63,372.34 191.07,371.46 188.00,370.29
             173.71,364.89 173.95,357.27 168.60,350.00
             163.67,343.30 160.34,342.26 156.30,337.91
             146.73,327.60 132.35,303.51 136.00,289.00
             136.00,289.00 133.00,288.00 133.00,288.00
             133.00,288.00 135.00,286.00 135.00,286.00
             135.00,286.00 129.00,278.00 129.00,278.00
             134.95,277.52 138.12,273.48 140.00,282.00
             147.07,275.25 152.26,269.76 162.00,266.52
             168.71,264.29 176.02,265.08 183.00,265.00
             183.00,265.00 192.58,264.40 192.58,264.40
             205.84,264.81 202.85,267.32 221.00,266.00
             221.00,266.00 219.92,236.00 219.92,236.00
             219.92,236.00 219.22,225.42 219.22,225.42
             219.41,209.26 223.03,194.44 230.27,180.00
             235.89,168.79 247.18,156.68 255.42,147.00
             263.30,137.75 269.47,130.86 268.96,118.00
             268.33,102.05 256.98,102.06 253.00,81.00
             253.00,81.00 263.00,79.19 263.00,79.19
             268.26,78.75 274.02,80.89 279.00,82.41
             287.59,85.04 309.23,96.81 315.91,102.51
             315.91,102.51 325.42,112.72 325.42,112.72
             330.69,118.09 335.86,121.60 340.29,128.00
             348.80,140.31 352.37,154.08 343.10,166.96
             341.42,169.30 337.40,173.63 334.92,175.03
             333.60,175.76 321.90,177.80 320.00,177.91
             317.00,178.08 302.91,176.04 299.83,175.12
             299.83,175.12 293.00,172.31 293.00,172.31
             290.13,171.22 274.02,166.92 271.41,166.87
             267.56,166.79 263.33,169.01 260.00,170.78
             241.09,180.82 238.93,198.75 237.51,218.00
             236.69,229.09 239.32,242.97 240.87,254.00
             241.54,258.77 241.94,266.11 245.30,269.67
             248.78,273.36 257.85,275.96 263.00,278.86
             268.89,282.18 276.44,288.05 281.72,292.36
             281.72,292.36 289.58,298.27 289.58,298.27
             296.74,305.04 302.39,315.91 301.67,326.00
             301.46,329.02 300.85,331.31 299.41,333.99
             298.52,335.62 296.95,337.97 295.57,339.20
             283.47,349.93 268.31,332.24 259.00,331.00
             256.07,330.61 253.63,331.92 251.00,333.00 Z
           M 93.00,93.00
           C 93.00,93.00 93.00,94.00 93.00,94.00
             93.00,94.00 92.00,93.00 92.00,93.00
             92.00,93.00 93.00,93.00 93.00,93.00 Z
           M 71.00,255.00
           C 71.00,255.00 71.00,256.00 71.00,256.00
             71.00,256.00 70.00,255.00 70.00,255.00
             70.00,255.00 71.00,255.00 71.00,255.00 Z
           M 133.00,286.00
           C 133.00,286.00 133.00,287.00 133.00,287.00
             133.00,287.00 132.00,286.00 132.00,286.00
             132.00,286.00 133.00,286.00 133.00,286.00 Z
           M 282.00,290.00
           C 282.00,290.00 282.00,291.00 282.00,291.00
             282.00,291.00 281.00,290.00 281.00,290.00
             281.00,290.00 282.00,290.00 282.00,290.00 Z
           M 168.19,291.02
           C 164.36,294.90 166.91,298.27 169.96,301.91
             174.51,307.35 184.15,315.41 191.90,312.83
             193.02,312.45 204.93,302.14 205.73,300.94
             206.83,299.31 208.21,296.66 206.36,295.02
             205.19,293.99 198.75,293.33 197.00,293.24
             192.65,293.02 188.33,293.46 184.00,292.63
             178.18,291.51 174.24,288.89 168.19,291.02 Z" />
</svg>
