<!--?xml version="1.0" encoding="utf-8"?-->
<!-- Generator: Adobe Illustrator 22.1.0, SVG Export Plug-In . SVG Version: 6.00 Build 0)  -->
<svg width="55px" height="55px" version="1.1" id="_x30_" xmlns="http://www.w3.org/2000/svg" xmlns:xlink="http://www.w3.org/1999/xlink" x="0px" y="0px" viewBox="0 0 600 450" xml:space="preserve" preserveAspectRatio="none">
<style type="text/css">
	.st0{fill:#040000;}
</style>
<g>
	<polygon class="st0" points="600,220.201 600,219.35 480.491,221.857 	"></polygon>
	<polygon class="st0" points="600,177.127 600,175 452.964,200.049 	"></polygon>
	<polygon class="st0" points="600,164.962 600,163.363 456.906,193.181 	"></polygon>
	<polygon class="st0" points="600,153.418 600,152.187 477.62,182.255 	"></polygon>
	<polygon class="st0" points="600,147.863 600,146.129 481.918,177.701 	"></polygon>
	<polygon class="st0" points="600,141.428 600,139.873 435.342,186.947 	"></polygon>
	<polygon class="st0" points="600,129.967 600,127.054 465.928,171.637 	"></polygon>
	<polygon class="st0" points="600,117.492 600,113.291 435.339,175.559 	"></polygon>
	<polygon class="st0" points="600,108.969 600,107.77 470.94,158.545 	"></polygon>
	<polygon class="st0" points="600,95.035 600,93.476 419.785,172.796 	"></polygon>
	<polygon class="st0" points="600,88.429 600,84.809 458.898,151.713 	"></polygon>
	<polygon class="st0" points="600,80.585 600,79.183 466.848,144.293 	"></polygon>
	<polygon class="st0" points="600,66.993 600,63.416 461.876,138.785 	"></polygon>
	<polygon class="st0" points="600,11.564 600,7.471 434.727,128.236 	"></polygon>
	<polygon class="st0" points="597.233,0 431.927,126.09 600,2.23 600,0 	"></polygon>
	<polygon class="st0" points="591.8,0 583.268,0 395.854,149.98 	"></polygon>
	<polygon class="st0" points="566.193,0 559.498,0 403.152,136.69 	"></polygon>
	<polygon class="st0" points="507.724,0 502.68,0 395.147,120.664 	"></polygon>
	<polygon class="st0" points="489.485,0 482.74,0 388.838,117.581 	"></polygon>
	<polygon class="st0" points="476.749,0 474.992,0 397.374,100.423 	"></polygon>
	<polygon class="st0" points="468.017,0 465.264,0 384.752,110.563 	"></polygon>
	<polygon class="st0" points="458.544,0 454.09,0 380.648,108.907 	"></polygon>
	<polygon class="st0" points="432.584,0 429.934,0 374.77,96.826 	"></polygon>
	<polygon class="st0" points="425.131,0 422.183,0 371.085,95.651 	"></polygon>
	<polygon class="st0" points="416.517,0 412.259,0 351.492,123.707 	"></polygon>
	<polygon class="st0" points="406.288,0 404.303,0 349.855,118.466 	"></polygon>
	<polygon class="st0" points="390.496,0 388.149,0 351.518,95.225 	"></polygon>
	<polygon class="st0" points="382.544,0 381.037,0 338.018,120.412 	"></polygon>
	<polygon class="st0" points="367.82,0 364.001,0 338.737,92.748 	"></polygon>
	<polygon class="st0" points="359.885,0 358.484,0 329.137,114.23 	"></polygon>
	<polygon class="st0" points="351.438,0 324.925,118.219 353.605,0 	"></polygon>
	<polygon class="st0" points="317.019,0 308.168,121.276 318.418,0 	"></polygon>
	<polygon class="st0" points="301.085,0 301.499,121.101 305.409,0 	"></polygon>
	<polygon class="st0" points="289.831,0 286.698,0 292.24,76.209 	"></polygon>
	<polygon class="st0" points="275.193,0 273.367,0 283.041,76.639 	"></polygon>
	<polygon class="st0" points="266.511,0 282.003,99.318 269.047,0 	"></polygon>
	<polygon class="st0" points="252.056,0 250.871,0 271.166,91.333 	"></polygon>
	<polygon class="st0" points="246.901,0 242.752,0 274.943,122.809 	"></polygon>
	<polygon class="st0" points="238.888,0 237.402,0 262.331,87.977 	"></polygon>
	<polygon class="st0" points="201.6,0 197.625,0 244.618,100.86 	"></polygon>
	<polygon class="st0" points="186.478,0 181.248,0 241.327,111.314 	"></polygon>
	<polygon class="st0" points="178.082,0 173.485,0 230.939,99.893 	"></polygon>
	<polygon class="st0" points="160.057,0 155.655,0 220.134,98.567 	"></polygon>
	<polygon class="st0" points="148.87,0 146.992,0 234.65,128.307 	"></polygon>
	<polygon class="st0" points="132.66,0 128.685,0 223.059,122.756 	"></polygon>
	<polygon class="st0" points="71.613,0 65.944,0 197.119,124.878 	"></polygon>
	<polygon class="st0" points="47.429,0 42.258,0 210.246,145.849 	"></polygon>
	<polygon class="st0" points="36.885,0 30.159,0 192.064,133.854 	"></polygon>
	<polygon class="st0" points="10.112,0 0.768,0 186.135,138.007 	"></polygon>
	<polygon class="st0" points="0,5.316 0,8.545 166.041,127.638 	"></polygon>
	<polygon class="st0" points="0,23.928 0,27.327 182.831,147.144 	"></polygon>
	<polygon class="st0" points="0,68.716 0,70.957 185.949,166.013 	"></polygon>
	<polygon class="st0" points="0,74.813 0,78.885 159.23,155.49 	"></polygon>
	<polygon class="st0" points="0,89.879 0,92.914 160.24,162.762 	"></polygon>
	<polygon class="st0" points="0,104.648 0,107.674 145.662,163.867 	"></polygon>
	<polygon class="st0" points="0,126.788 0,128.011 150.884,176.488 	"></polygon>
	<polygon class="st0" points="0,131.229 0,134.925 149.53,178.9 	"></polygon>
	<polygon class="st0" points="0,143.37 0,146.731 158.147,187.2 	"></polygon>
	<polygon class="st0" points="0,198.761 0,201.079 126.534,210.499 	"></polygon>
	<polygon class="st0" points="0,209.819 0,211.08 149.774,217.714 	"></polygon>
	<polygon class="st0" points="0,214.461 0,216.913 107.624,219.028 	"></polygon>
	<polygon class="st0" points="0,220.118 0,221.713 161.483,223.114 	"></polygon>
	<polygon class="st0" points="0,230.36 0,231.581 143.515,228.114 	"></polygon>
	<polygon class="st0" points="0,235.471 0,237.72 107.715,232.432 	"></polygon>
	<polygon class="st0" points="0,240.723 0,243.748 143.917,233.966 	"></polygon>
	<polygon class="st0" points="0,253.431 0,254.536 120.939,242.299 	"></polygon>
	<polygon class="st0" points="0,258.804 0,260.621 121.571,245.645 	"></polygon>
	<polygon class="st0" points="0,298.963 0,300.561 134.364,266.277 	"></polygon>
	<polygon class="st0" points="0,305.12 0,307.877 158.458,263.449 	"></polygon>
	<polygon class="st0" points="0,311.053 0,312.953 165.187,264.096 	"></polygon>
	<polygon class="st0" points="0,324.661 0,326.639 162.582,271.103 	"></polygon>
	<polygon class="st0" points="0,331.71 0,333.223 137.088,283.357 	"></polygon>
	<polygon class="st0" points="0,342.866 0,346.324 151.174,284.324 	"></polygon>
	<polygon class="st0" points="0,349.996 0,353.801 142.742,291.512 	"></polygon>
	<polygon class="st0" points="0,401.577 0,406.8 191.623,289.725 	"></polygon>
	<polygon class="st0" points="0,418.251 0,424.239 172.975,308.079 	"></polygon>
	<polygon class="st0" points="0,428.012 0,434.719 162.512,319.554 	"></polygon>
	<polygon class="st0" points="0,449.919 0,450 5.896,450 189.852,308.422 	"></polygon>
	<polygon class="st0" points="15.304,450 21.399,450 172.328,327.003 	"></polygon>
	<polygon class="st0" points="29.028,450 33.35,450 179.523,325.846 	"></polygon>
	<polygon class="st0" points="53.711,450 58.641,450 174.786,340.557 	"></polygon>
	<polygon class="st0" points="64.391,450 68.997,450 207.588,314.128 	"></polygon>
	<polygon class="st0" points="117.809,450 121.371,450 216.237,329.471 	"></polygon>
	<polygon class="st0" points="134.959,450 141.118,450 234.192,316.434 	"></polygon>
	<polygon class="st0" points="154.252,450 156.976,450 216.503,355.12 	"></polygon>
	<polygon class="st0" points="161.356,450 165.565,450 230.188,340.051 	"></polygon>
	<polygon class="st0" points="170.666,450 174.139,450 229.341,349.604 	"></polygon>
	<polygon class="st0" points="186.689,450 190.397,450 247.575,330.837 	"></polygon>
	<polygon class="st0" points="231.623,450 235.349,450 263.521,348.409 	"></polygon>
	<polygon class="st0" points="248.352,450 249.733,450 274.791,336.311 	"></polygon>
	<polygon class="st0" points="254.206,450 257.083,450 278.86,332.239 	"></polygon>
	<polygon class="st0" points="270.404,450 280.987,364.176 268.119,450 	"></polygon>
	<polygon class="st0" points="282.584,450 285.025,450 292.208,333.247 	"></polygon>
	<polygon class="st0" points="292.996,450 294.595,373.85 290.663,450 	"></polygon>
	<polygon class="st0" points="304.673,450 307.896,450 303.781,360.375 	"></polygon>
	<polygon class="st0" points="311.067,450 314.397,450 306.637,342.299 	"></polygon>
	<polygon class="st0" points="326.147,450 329.411,450 312.773,328.462 	"></polygon>
	<polygon class="st0" points="369.961,450 372.654,450 344.523,365.491 	"></polygon>
	<polygon class="st0" points="377.494,450 381.042,450 335.389,325.458 	"></polygon>
	<polygon class="st0" points="385.778,450 388.889,450 348.783,350.688 	"></polygon>
	<polygon class="st0" points="401.47,450 403.846,450 360.393,357.37 	"></polygon>
	<polygon class="st0" points="408.482,450 411.333,450 351.784,331.015 	"></polygon>
	<polygon class="st0" points="415.663,450 420.101,450 359.439,338.461 	"></polygon>
	<polygon class="st0" points="431.909,450 435.371,450 375.902,352.8 	"></polygon>
	<polygon class="st0" points="448.54,450 452.865,450 389.115,358.063 	"></polygon>
	<polygon class="st0" points="457.228,450 460.473,450 392.903,356.597 	"></polygon>
	<polygon class="st0" points="474.119,450 480.213,450 394.844,345.472 	"></polygon>
	<polygon class="st0" points="550.147,450 556.411,450 408.718,321.59 	"></polygon>
	<polygon class="st0" points="563.129,450 567.733,450 391.799,302.82 	"></polygon>
	<polygon class="st0" points="577.251,450 580.91,450 431.14,330.731 	"></polygon>
	<polygon class="st0" points="600,446.895 600,443.949 437.541,326.053 	"></polygon>
	<polygon class="st0" points="600,426.81 600,423.442 416.969,303.025 	"></polygon>
	<polygon class="st0" points="600,403.244 600,397.883 428.153,299.985 	"></polygon>
	<polygon class="st0" points="600,394.495 600,390.103 411.179,286.994 	"></polygon>
	<polygon class="st0" points="600,377.058 600,374.995 434.957,292.939 	"></polygon>
	<polygon class="st0" points="600,369.58 600,365.368 422.12,282.99 	"></polygon>
	<polygon class="st0" points="600,361.618 600,359.953 469.985,301.937 	"></polygon>
	<polygon class="st0" points="600,301.41 600,299.513 488.236,272.347 	"></polygon>
	<polygon class="st0" points="600,290.494 600,289.224 467.711,261.258 	"></polygon>
	<polygon class="st0" points="600,285.034 600,283.444 457.184,256.037 	"></polygon>
	<polygon class="st0" points="600,274.045 600,272.347 470.669,252.418 	"></polygon>
	<polygon class="st0" points="600,267.847 600,266.857 459.735,247.55 	"></polygon>
	<polygon class="st0" points="600,258.918 600,255.934 443.062,240.462 	"></polygon>
	<polygon class="st0" points="600,247.57 600,246.079 485.669,238.506 	"></polygon>
	<polygon class="st0" points="600,237.297 600,235.342 498.289,232.482 	"></polygon>
	<polygon class="st0" points="600,227.276 600,224.452 468.539,225.485 	"></polygon>
	<polygon class="st0" points="600,221.77 600,220.296 456.516,222.931 	"></polygon>
</g>
<g font-family="noto" id="svgTXT" font-size="94"><text x="50%" y="57.629999999999995%" fill="000000" text-anchor="middle" font-weight="bolder" style="fill: rgb(0, 0, 0);">ながめ</text></g></svg>
